<svg width="512" height="512" viewBox="0 0 512 512" fill="none" xmlns="http://www.w3.org/2000/svg">
<path d="M240.175 113.475C264.745 75.045 308.235 70.575 341.65 74.04C367.59 76.74 372.18 69.11 348.255 58.715C298.14 36.94 224.915 34.085 176.1 82.89L110.33 148.655C106.645 152.35 106.72 158.415 108.83 163.19C111.575 169.36 106.73 177.9 100.375 184.265C94.02 190.605 85.49 195.455 79.31 192.71C74.525 190.6 68.47 190.52 64.785 194.215L36.51 222.47C29.165 229.825 29.165 241.84 36.51 249.185L74.195 286.865C81.54 294.225 93.57 294.225 100.91 286.865L129.18 258.61C132.865 254.92 132.795 248.85 130.685 244.085C127.94 237.89 132.785 229.375 139.13 223.015C149.22 212.915 172.11 209.64 192.955 228.6L241.6 179.965C223 156.245 230.71 128.35 240.175 113.475Z" fill="#D1D5DB"/>
<path d="M473.885 398.05L261.44 199.45L212.155 248.73L410.78 461.145C419.305 470.405 433.43 470.675 442.33 461.785L474.52 429.58C483.4 420.695 483.125 406.58 473.885 398.05Z" fill="#9CA3AF"/>
</svg>
