<?xml version="1.0" standalone="no"?>
<!DOCTYPE svg PUBLIC "-//W3C//DTD SVG 20010904//EN"
 "http://www.w3.org/TR/2001/REC-SVG-20010904/DTD/svg10.dtd">
<svg version="1.0" xmlns="http://www.w3.org/2000/svg"
 width="700.000000pt" height="700.000000pt" viewBox="0 0 700.000000 700.000000"
 preserveAspectRatio="xMidYMid meet">
<metadata>
Created by potrace 1.14, written by Peter Selinger 2001-2017
</metadata>
<g transform="translate(0.000000,700.000000) scale(0.100000,-0.100000)"
fill="#000000" stroke="none">
<path d="M3808 6476 c-1 -2 -66 -6 -143 -9 -77 -4 -149 -8 -160 -11 -11 -2
-42 -7 -69 -10 -319 -43 -649 -186 -911 -394 -102 -81 -1062 -1040 -1085
-1084 -23 -44 -25 -97 -5 -153 22 -61 18 -105 -16 -174 -59 -118 -184 -228
-290 -256 -46 -12 -57 -12 -110 5 -69 21 -129 18 -173 -10 -47 -29 -439 -429
-466 -475 -33 -55 -35 -181 -4 -239 27 -51 595 -619 648 -648 55 -30 172 -31
231 -3 40 20 455 424 489 476 24 38 27 95 7 160 -10 31 -16 71 -14 90 10 93
122 238 220 284 180 86 406 53 587 -83 27 -20 55 -41 62 -47 11 -8 95 71 355
331 289 289 339 343 327 355 -49 51 -111 188 -132 289 -18 84 -17 237 0 322
73 349 368 658 749 786 221 74 341 84 875 71 144 -3 169 -2 198 14 20 11 32
25 32 38 0 58 -176 156 -426 238 -83 28 -162 52 -175 55 -13 2 -53 11 -89 19
-114 27 -247 45 -381 52 -57 4 -109 8 -116 10 -6 2 -13 2 -15 1z"/>
<path d="M3230 3945 l-344 -344 59 -63 c33 -35 87 -92 121 -128 34 -36 72 -77
85 -91 23 -25 214 -230 289 -309 19 -21 82 -88 139 -149 58 -62 121 -129 140
-150 57 -60 255 -272 291 -311 18 -19 85 -91 150 -160 64 -69 141 -152 171
-184 30 -32 74 -80 99 -105 25 -26 92 -98 149 -159 58 -62 121 -130 140 -151
49 -51 251 -268 291 -311 28 -30 222 -237 300 -320 14 -15 54 -58 89 -96 343
-369 353 -377 486 -380 130 -4 145 7 447 309 293 293 310 317 314 432 4 128
-21 169 -227 359 -40 38 -108 101 -149 140 -95 89 -202 189 -359 336 -68 63
-140 131 -161 150 -21 19 -93 87 -161 151 -68 64 -137 128 -154 143 -16 15
-82 77 -145 136 -64 60 -126 118 -138 129 -13 10 -86 79 -162 151 -76 72 -147
139 -158 148 -10 9 -73 67 -138 129 -65 61 -137 129 -160 150 -22 21 -101 94
-174 163 -73 69 -140 132 -150 140 -9 8 -71 65 -136 126 -65 62 -135 126 -154
144 -19 18 -93 87 -164 154 -71 66 -134 126 -140 131 -41 38 -26 50 -386 -310z"/>
</g>
</svg>
