<?xml version="1.0" standalone="no"?>
<!DOCTYPE svg PUBLIC "-//W3C//DTD SVG 20010904//EN"
 "http://www.w3.org/TR/2001/REC-SVG-20010904/DTD/svg10.dtd">
<svg version="1.0" xmlns="http://www.w3.org/2000/svg"
 width="700.000000pt" height="700.000000pt" viewBox="0 0 700.000000 700.000000"
 preserveAspectRatio="xMidYMid meet">
<metadata>
Created by potrace 1.14, written by Peter Selinger 2001-2017
</metadata>
<g transform="translate(0.000000,700.000000) scale(0.100000,-0.100000)"
fill="#000000" stroke="none">
<path d="M3737 6404 c-1 -1 -53 -5 -116 -8 -63 -4 -117 -8 -120 -10 -3 -2 -30
-7 -60 -10 -213 -25 -501 -127 -694 -244 -161 -98 -257 -184 -746 -673 -271
-270 -502 -506 -512 -523 -23 -38 -24 -99 -3 -157 19 -54 13 -103 -23 -175
-51 -104 -208 -234 -298 -247 -17 -2 -50 2 -75 9 -66 19 -125 22 -157 9 -36
-15 -457 -434 -479 -476 -33 -64 -36 -163 -7 -228 25 -57 578 -612 639 -641
60 -30 137 -32 204 -7 48 18 82 47 276 241 175 174 224 229 232 258 11 40 8
82 -10 138 -23 70 -1 149 64 233 92 118 205 169 358 165 133 -3 247 -45 365
-133 33 -25 62 -45 65 -45 3 0 153 148 333 328 l328 328 -44 72 c-25 40 -58
112 -73 160 -26 79 -29 100 -29 227 1 125 4 150 28 229 96 303 328 545 642
669 210 83 366 107 650 100 383 -9 428 -9 463 6 46 20 45 59 -5 101 -108 90
-479 225 -728 264 -70 11 -112 17 -145 21 -56 7 -319 23 -323 19z"/>
<path d="M3232 3933 l-332 -335 58 -61 c33 -34 72 -76 88 -93 34 -37 244 -261
359 -384 44 -47 84 -90 90 -96 5 -6 62 -66 125 -134 63 -67 129 -137 145 -155
109 -117 365 -390 490 -523 76 -81 74 -79 222 -238 134 -144 153 -165 242
-259 111 -118 324 -345 355 -380 27 -30 209 -224 336 -359 36 -38 80 -85 98
-105 176 -190 221 -217 342 -208 116 8 135 21 415 301 208 208 260 266 281
310 42 91 36 197 -16 281 -16 25 -174 181 -294 290 -6 6 -49 46 -96 90 -77 72
-195 182 -424 396 -44 41 -98 92 -121 114 -24 22 -91 85 -150 140 -59 55 -127
118 -150 140 -23 22 -93 87 -155 145 -62 58 -130 121 -150 140 -35 33 -236
221 -310 290 -19 18 -87 81 -150 140 -63 59 -129 120 -146 136 -35 33 -267
250 -328 307 -22 21 -92 86 -155 145 -63 59 -149 139 -191 178 -81 77 -136
125 -141 123 -2 -1 -154 -152 -337 -336z"/>
</g>
</svg>
